<svg width="1101" height="308" viewBox="0 0 1101 308" fill="none" xmlns="http://www.w3.org/2000/svg">
<g clip-path="url(#clip0)">
<path d="M920.439 35.0856C918.222 39.1855 915.307 42.6385 911.928 45.3928C906.858 49.519 900.732 52.0656 894.385 52.7623C888.033 53.4568 881.473 52.3185 875.468 49.0713C871.463 46.9058 868.111 44.0204 865.458 40.6506C861.484 35.5959 859.09 29.4392 858.527 23.022C857.969 16.5965 859.226 9.92916 862.546 3.77916L857.063 0.813965C854.435 5.67297 852.884 10.8392 852.347 15.9987C851.539 23.7443 852.995 31.4799 856.432 38.2491C859.869 45.0184 865.307 50.8323 872.428 54.683C877.174 57.2495 882.247 58.7151 887.328 59.1614C894.96 59.8278 902.627 58.2005 909.379 54.5852C916.13 50.9698 921.978 45.3456 925.92 38.055L920.437 35.0898L920.439 35.0856Z" fill="#A4F7EA"/>
</g>
<g clip-path="url(#clip1)">
<path d="M959.577 200.576C961.42 203.808 962.531 207.239 962.973 210.691C963.632 215.866 962.774 221.092 960.57 225.687C958.362 230.285 954.825 234.251 950.092 236.951C946.936 238.752 943.567 239.807 940.164 240.184C935.063 240.746 929.881 239.772 925.295 237.448C920.705 235.117 916.716 231.453 913.949 226.61L909.627 229.076C911.812 232.905 914.659 236.135 917.929 238.674C922.838 242.488 928.694 244.763 934.731 245.288C940.768 245.814 947.001 244.58 952.613 241.378C956.354 239.243 959.486 236.424 961.931 233.168C965.601 228.277 967.731 222.395 968.128 216.295C968.525 210.195 967.179 203.86 963.9 198.114L959.579 200.58L959.577 200.576Z" fill="#CBB0F6"/>
</g>
<g clip-path="url(#clip2)">
<path d="M169.975 62.3429C172.336 59.373 175.164 57.021 178.265 55.2951C182.915 52.7105 188.188 51.5424 193.374 51.8884C198.563 52.2367 203.659 54.0837 208.009 57.5415C210.91 59.8476 213.185 62.6375 214.831 65.7162C217.296 70.3333 218.337 75.6085 217.874 80.8316C217.406 86.0607 215.449 91.225 211.912 95.6807L215.884 98.8383C218.682 95.3185 220.661 91.3992 221.826 87.3406C223.577 81.2483 223.513 74.8414 221.723 68.9267C219.933 63.0121 216.403 57.5779 211.245 53.4773C207.807 50.7443 203.95 48.847 199.941 47.7653C193.919 46.1439 187.543 46.3558 181.617 48.2913C175.691 50.2269 170.204 53.9012 166.005 59.1823L169.977 62.3399L169.975 62.3429Z" fill="#CBB0F6"/>
</g>
<g clip-path="url(#clip3)">
<path d="M106.896 270.491C107.998 272.813 108.585 275.235 108.71 277.637C108.895 281.237 108.032 284.792 106.275 287.844C104.515 290.896 101.871 293.445 98.4696 295.059C96.2015 296.136 93.8255 296.687 91.4617 296.77C87.9178 296.892 84.3983 295.952 81.3593 294.112C78.3181 292.267 75.7608 289.536 74.1058 286.055L71 287.529C72.3062 290.281 74.0999 292.654 76.221 294.574C79.4044 297.457 83.3209 299.329 87.4527 300.005C91.5845 300.68 95.9432 300.154 99.9765 298.24C102.665 296.964 104.969 295.184 106.823 293.068C109.606 289.889 111.38 285.947 111.97 281.765C112.561 277.583 111.963 273.149 110.003 269.02L106.897 270.494L106.896 270.491Z" fill="#A4F7EA"/>
</g>
<g clip-path="url(#clip4)">
<path d="M78.7898 146.795C76.8256 150.736 74.1821 154.087 71.0781 156.794C66.422 160.849 60.7184 163.446 54.7478 164.303C48.7733 165.158 42.5435 164.29 36.7723 161.413C32.9236 159.495 29.6682 156.876 27.0575 153.778C23.1464 149.131 20.6928 143.394 19.9596 137.353C19.2304 131.304 20.2077 124.97 23.1491 119.059L17.8791 116.432C15.5512 121.102 14.2493 126.029 13.9049 130.917C13.3853 138.255 15.0029 145.512 18.4604 151.795C21.9179 158.077 27.2349 163.395 34.0789 166.807C38.6402 169.08 43.4755 170.305 48.2871 170.566C55.5134 170.955 62.7003 169.178 68.9607 165.552C75.2211 161.927 80.565 156.433 84.0578 149.426L78.7878 146.799L78.7898 146.795Z" fill="white"/>
</g>
<g clip-path="url(#clip5)">
<path d="M1093.54 125.263C1093.85 128.312 1093.55 131.267 1092.73 134.015C1091.5 138.132 1089.11 141.782 1085.92 144.508C1082.72 147.234 1078.73 149.041 1074.27 149.496C1071.29 149.8 1068.4 149.47 1065.71 148.619C1061.68 147.341 1058.1 144.879 1055.42 141.598C1052.74 138.312 1050.96 134.222 1050.49 129.651L1046.42 130.066C1046.78 133.679 1047.85 137.062 1049.47 140.065C1051.89 144.575 1055.54 148.242 1059.92 150.651C1064.29 153.061 1069.39 154.211 1074.69 153.671C1078.22 153.311 1081.52 152.233 1084.45 150.596C1088.84 148.136 1092.41 144.417 1094.74 139.955C1097.07 135.493 1098.17 130.272 1097.62 124.851L1093.54 125.267L1093.54 125.263Z" fill="white"/>
</g>
<defs>
<clipPath id="clip0">
<rect width="78.2878" height="40.0759" fill="white" transform="translate(857.063 0.813965) rotate(28.4029)"/>
</clipPath>
<clipPath id="clip1">
<rect width="62.4874" height="31.9876" fill="white" transform="translate(909.627 229.076) rotate(-29.7071)"/>
</clipPath>
<clipPath id="clip2">
<rect width="63.7254" height="32.6213" fill="white" transform="translate(215.884 98.8383) rotate(-141.517)"/>
</clipPath>
<clipPath id="clip3">
<rect width="43.1746" height="22.1013" fill="white" transform="translate(71 287.529) rotate(-25.3906)"/>
</clipPath>
<clipPath id="clip4">
<rect width="73.9517" height="37.8562" fill="white" transform="translate(17.8791 116.432) rotate(26.4953)"/>
</clipPath>
<clipPath id="clip5">
<rect width="51.4739" height="26.3497" fill="white" transform="translate(1046.42 130.066) rotate(-5.81861)"/>
</clipPath>
</defs>
</svg>
