<svg width="1101" height="308" fill="none" xmlns="http://www.w3.org/2000/svg"><g clip-path="url(#clip0)"><path d="M920.439 35.086a34.299 34.299 0 01-8.511 10.307c-5.07 4.126-11.196 6.673-17.543 7.37-6.352.694-12.912-.444-18.917-3.692a32.159 32.159 0 01-10.01-8.42c-3.974-5.055-6.368-11.212-6.931-17.629-.558-6.425.699-13.093 4.019-19.243L857.063.814a40.78 40.78 0 00-4.716 15.185c-.808 7.745.648 15.48 4.085 22.25s8.875 12.583 15.996 16.434a38.329 38.329 0 0014.9 4.478c7.632.667 15.299-.96 22.051-4.576 6.751-3.615 12.599-9.24 16.541-16.53l-5.483-2.965.002-.004z" fill="#A4F7EA"/></g><g clip-path="url(#clip1)"><path d="M959.577 200.576a27.397 27.397 0 013.396 10.115 26.888 26.888 0 01-2.403 14.996c-2.208 4.598-5.745 8.564-10.478 11.264a25.666 25.666 0 01-9.928 3.233c-5.101.562-10.283-.412-14.869-2.736-4.59-2.331-8.579-5.995-11.346-10.838l-4.322 2.466a32.555 32.555 0 008.302 9.598c4.909 3.814 10.765 6.089 16.802 6.614a30.613 30.613 0 0017.882-3.91 30.592 30.592 0 009.318-8.21c3.67-4.891 5.8-10.773 6.197-16.873.397-6.1-.949-12.435-4.228-18.181l-4.321 2.466-.002-.004z" fill="#CBB0F6"/></g><g clip-path="url(#clip2)"><path d="M169.975 62.343a27.914 27.914 0 018.29-7.048c4.65-2.584 9.923-3.753 15.109-3.407 5.189.349 10.285 2.196 14.635 5.654a26.176 26.176 0 016.822 8.174c2.465 4.617 3.506 9.893 3.043 15.116-.468 5.229-2.425 10.393-5.962 14.849l3.972 3.157a33.191 33.191 0 005.942-11.497c1.751-6.093 1.687-12.5-.103-18.414a31.23 31.23 0 00-10.478-15.45 31.202 31.202 0 00-11.304-5.712c-6.022-1.621-12.398-1.41-18.324.526-5.926 1.936-11.413 5.61-15.612 10.891l3.972 3.158-.002.003z" fill="#CBB0F6"/></g><g clip-path="url(#clip3)"><path d="M106.896 270.491a18.92 18.92 0 011.814 7.146c.185 3.6-.678 7.155-2.435 10.207a17.756 17.756 0 01-7.805 7.215 17.732 17.732 0 01-7.008 1.711c-3.544.122-7.064-.818-10.103-2.658a18.829 18.829 0 01-7.253-8.057L71 287.529a22.496 22.496 0 005.221 7.045 22.069 22.069 0 0011.232 5.431c4.132.675 8.49.149 12.523-1.765a21.133 21.133 0 006.847-5.172c2.783-3.179 4.557-7.121 5.147-11.303a22.384 22.384 0 00-1.967-12.745l-3.106 1.474-.001-.003z" fill="#A4F7EA"/></g><g clip-path="url(#clip4)"><path d="M78.79 146.795a32.394 32.394 0 01-7.712 9.999c-4.656 4.055-10.36 6.652-16.33 7.509-5.975.855-12.204-.013-17.976-2.89a30.375 30.375 0 01-9.714-7.635c-3.912-4.647-6.365-10.384-7.098-16.425-.73-6.049.248-12.383 3.19-18.294l-5.27-2.627a38.525 38.525 0 00-3.975 14.485c-.52 7.338 1.098 14.595 4.555 20.878 3.458 6.282 8.775 11.6 15.619 15.012a36.207 36.207 0 0014.208 3.759c7.226.389 14.413-1.388 20.674-5.014 6.26-3.625 11.604-9.119 15.097-16.126l-5.27-2.627.002-.004z" fill="#fff"/></g><g clip-path="url(#clip5)"><path d="M1093.54 125.263c.31 3.049.01 6.004-.81 8.752a22.17 22.17 0 01-6.81 10.493 21.2 21.2 0 01-11.65 4.988c-2.98.304-5.87-.026-8.56-.877-4.03-1.278-7.61-3.74-10.29-7.021-2.68-3.286-4.46-7.376-4.93-11.947l-4.07.415a26.59 26.59 0 003.05 9.999 26.228 26.228 0 0010.45 10.586c4.37 2.41 9.47 3.56 14.77 3.02a25.22 25.22 0 009.76-3.075c4.39-2.46 7.96-6.179 10.29-10.641a26.748 26.748 0 002.88-15.104l-4.08.416v-.004z" fill="#fff"/></g><defs><clipPath id="clip0"><path fill="#fff" transform="rotate(28.403 426.923 1693.767)" d="M0 0h78.288v40.076H0z"/></clipPath><clipPath id="clip1"><path fill="#fff" transform="rotate(-29.707 886.688 -1600.37)" d="M0 0h62.487v31.988H0z"/></clipPath><clipPath id="clip2"><path fill="#fff" transform="rotate(-141.517 125.192 11.742)" d="M0 0h63.725v32.621H0z"/></clipPath><clipPath id="clip3"><path fill="#fff" transform="rotate(-25.391 673.677 -13.822)" d="M0 0h43.175v22.101H0z"/></clipPath><clipPath id="clip4"><path fill="#fff" transform="rotate(26.495 -238.34 96.188)" d="M0 0h73.952v37.856H0z"/></clipPath><clipPath id="clip5"><path fill="#fff" transform="rotate(-5.819 1802.867 -10230.194)" d="M0 0h51.474v26.35H0z"/></clipPath></defs></svg>